<svg
        width="40"
        height="40"
        viewBox="0 0 40 40"
        version="1.1"
        xmlns="http://www.w3.org/2000/svg"
>
    <g
            transform="translate(4,11)"
            stroke="#000"
            stroke-width="2"
    >
        <path
                d="M 6.65 17.95 Q 3.475 17.95 0.7 16.75 A 1.119 1.119 0 0 1 0.238 16.39 A 1.362 1.362 0 0 1 0.2 16.338 A 1.118 1.118 0 0 1 0.036 15.993 A 1.012 1.012 0 0 1 0 15.725 Q 0 15.3 0.288 14.988 A 0.949 0.949 0 0 1 0.98 14.676 A 1.261 1.261 0 0 1 1.025 14.675 Q 1.275 14.675 1.5 14.775 Q 3.8 15.8 6.425 15.8 Q 9.611 15.8 10.477 14.276 A 2.69 2.69 0 0 0 10.8 12.925 A 1.595 1.595 0 0 0 10.306 11.739 A 1.96 1.96 0 0 0 10.238 11.675 A 3.771 3.771 0 0 0 9.398 11.116 A 4.796 4.796 0 0 0 8.85 10.888 A 16.338 16.338 0 0 0 8.394 10.737 Q 7.644 10.5 6.5 10.2 Q 4.475 9.675 3.225 9.188 Q 1.975 8.7 1.075 7.725 A 3.299 3.299 0 0 1 0.281 6.166 A 4.823 4.823 0 0 1 0.175 5.125 Q 0.175 3.7 0.925 2.538 Q 1.675 1.375 3.138 0.688 Q 4.512 0.042 6.404 0.003 A 11.912 11.912 0 0 1 6.65 0 Q 9.4 0 11.625 0.825 Q 12.325 1.075 12.325 1.825 A 1.087 1.087 0 0 1 12.075 2.52 A 1.375 1.375 0 0 1 12.05 2.55 A 0.891 0.891 0 0 1 11.398 2.873 A 1.189 1.189 0 0 1 11.325 2.875 A 0.613 0.613 0 0 1 11.222 2.865 Q 11.097 2.844 10.925 2.775 Q 8.975 2.1 6.9 2.1 A 8.517 8.517 0 0 0 5.576 2.197 Q 4.48 2.37 3.688 2.85 A 2.853 2.853 0 0 0 2.983 3.437 A 2.26 2.26 0 0 0 2.45 4.95 A 2.245 2.245 0 0 0 2.551 5.638 A 1.831 1.831 0 0 0 3.038 6.413 A 3.741 3.741 0 0 0 3.938 7.043 A 4.753 4.753 0 0 0 4.513 7.288 A 13.42 13.42 0 0 0 5.13 7.487 Q 5.827 7.695 6.787 7.918 A 44.872 44.872 0 0 0 6.925 7.95 A 38.084 38.084 0 0 1 8.193 8.277 Q 8.755 8.433 9.235 8.588 A 15.768 15.768 0 0 1 10.113 8.9 Q 11.325 9.375 12.188 10.375 A 3.396 3.396 0 0 1 12.896 11.763 Q 13.028 12.273 13.047 12.875 A 6.461 6.461 0 0 1 13.05 13.075 Q 13.05 14.475 12.25 15.588 A 4.916 4.916 0 0 1 10.804 16.911 A 6.348 6.348 0 0 1 10 17.325 A 7.488 7.488 0 0 1 8.146 17.843 A 10.02 10.02 0 0 1 6.65 17.95 Z M 16.55 16.575 L 16.55 1.4 Q 16.55 0.925 16.875 0.588 Q 17.2 0.25 17.675 0.25 L 23.575 0.25 A 9.387 9.387 0 0 1 25.182 0.379 Q 26.724 0.647 27.713 1.475 A 4.002 4.002 0 0 1 29.162 4.394 A 5.566 5.566 0 0 1 29.175 4.775 Q 29.175 6.225 28.488 7.188 Q 27.8 8.15 26.725 8.625 A 5.964 5.964 0 0 1 28.243 9.341 A 5.158 5.158 0 0 1 29.188 10.15 A 3.629 3.629 0 0 1 30.12 12.255 A 4.876 4.876 0 0 1 30.15 12.8 Q 30.15 15.1 28.6 16.4 A 4.708 4.708 0 0 1 27.153 17.205 Q 25.777 17.7 23.725 17.7 L 17.675 17.7 A 1.143 1.143 0 0 1 17.213 17.609 A 1.096 1.096 0 0 1 16.875 17.375 A 1.085 1.085 0 0 1 16.55 16.59 A 1.374 1.374 0 0 1 16.55 16.575 Z M 18.825 15.575 L 23.5 15.575 Q 25.47 15.575 26.508 15.08 A 2.6 2.6 0 0 0 26.938 14.825 A 2.419 2.419 0 0 0 27.932 13.054 A 3.421 3.421 0 0 0 27.95 12.7 A 2.386 2.386 0 0 0 26.608 10.425 Q 25.601 9.896 23.84 9.854 A 13.01 13.01 0 0 0 23.525 9.85 L 18.825 9.85 L 18.825 15.575 Z M 18.825 7.8 L 22.975 7.8 Q 25.2 7.8 26.1 7.05 A 2.445 2.445 0 0 0 26.963 5.474 A 3.556 3.556 0 0 0 27 4.95 A 2.3 2.3 0 0 0 26.789 3.953 Q 26.568 3.487 26.116 3.134 A 2.905 2.905 0 0 0 26.038 3.075 A 3.35 3.35 0 0 0 24.989 2.576 Q 24.534 2.444 23.992 2.399 A 7.129 7.129 0 0 0 23.4 2.375 L 18.825 2.375 L 18.825 7.8 Z"
                vector-effect="non-scaling-stroke"
        />
    </g>
</svg>
